<svg width="320" height="320" viewBox="0 0 320 320" fill="none" xmlns="http://www.w3.org/2000/svg">
<circle cx="160" cy="160" r="160" fill="#1F76C7"/>
<path d="M285 159C285 228.036 229.036 284 160 284C90.9644 284 35 228.036 35 159C35 89.9644 90.9644 34 160 34C229.036 34 285 89.9644 285 159Z" fill="white"/>
<rect x="69.5" y="109.5" width="179" height="119" rx="45.5" fill="#75AADB" stroke="white"/>
<path d="M84 164C84 155.716 90.7157 149 99 149H219C227.284 149 234 155.716 234 164V174C234 182.284 227.284 189 219 189H99C90.7157 189 84 182.284 84 174V164Z" fill="white"/>
<path d="M124 169C124 174.523 119.523 179 114 179C108.477 179 104 174.523 104 169C104 163.477 108.477 159 114 159C119.523 159 124 163.477 124 169Z" fill="#1F76C7"/>
<circle cx="204" cy="169" r="10" fill="#1F76C7"/>
<rect x="154.5" y="78.5" width="9" height="31" fill="#31475C" stroke="white"/>
<circle cx="159" cy="85" r="9.5" fill="#1F76C7" stroke="white"/>
</svg>
