<svg width="320" height="320" viewBox="0 0 320 320" fill="none" xmlns="http://www.w3.org/2000/svg">
<circle cx="160" cy="160" r="160" fill="#1F76C7"/>
<path d="M285 160C285 229.036 229.036 285 160 285C90.9644 285 35 229.036 35 160C35 90.9644 90.9644 35 160 35C229.036 35 285 90.9644 285 160Z" fill="white"/>
<rect x="71.5" y="125.5" width="179" height="119" rx="45.5" fill="#75AADB" stroke="white"/>
<path d="M85 179C85 170.716 91.7157 164 100 164H220C228.284 164 235 170.716 235 179V189C235 197.284 228.284 204 220 204H100C91.7157 204 85 197.284 85 189V179Z" fill="white"/>
<path d="M125 184C125 189.523 120.523 194 115 194C109.477 194 105 189.523 105 184C105 178.477 109.477 174 115 174C120.523 174 125 178.477 125 184Z" fill="#1F76C7"/>
<circle cx="205" cy="184" r="10" fill="#1F76C7"/>
<rect x="155.5" y="94.5" width="9" height="31" fill="#31475C" stroke="white"/>
<path d="M138 65H183V110H138V65Z" fill="url(#paint0_linear)"/>
<path d="M160.5 110.5C173.203 110.5 183.5 100.203 183.5 87.5C183.5 74.7975 173.203 64.5 160.5 64.5C147.797 64.5 137.5 74.7975 137.5 87.5C137.5 100.203 147.797 110.5 160.5 110.5Z" fill="#D50A05" stroke="white"/>
<path d="M181.333 87.5C181.333 99.0059 172.006 108.333 160.5 108.333C148.994 108.333 139.667 99.0059 139.667 87.5C139.667 75.994 148.994 66.6666 160.5 66.6666C172.006 66.6666 181.333 75.994 181.333 87.5Z" fill="#D50A05"/>
<path d="M181.333 87.5C181.333 99.0059 172.006 108.333 160.5 108.333C148.994 108.333 139.667 99.0059 139.667 87.5C139.667 75.994 148.994 66.6666 160.5 66.6666C172.006 66.6666 181.333 75.994 181.333 87.5Z" fill="white"/>
<path d="M179.333 87.1667C179.333 97.7521 170.752 106.333 160.167 106.333C149.581 106.333 141 97.7521 141 87.1667C141 76.5812 149.581 68 160.167 68C170.752 68 179.333 76.5812 179.333 87.1667Z" fill="#D50A05"/>
<path d="M149.667 91.6666V83.3333H171.333V91.6666H149.667Z" fill="white"/>
<path d="M164.667 98.3334H156.333V76.6667H164.667V98.3334Z" fill="white"/>
<defs>
<linearGradient id="paint0_linear" x1="160.5" y1="65" x2="160.5" y2="110" gradientUnits="userSpaceOnUse">
<stop stop-color="white"/>
<stop offset="1" stop-color="white" stop-opacity="0"/>
</linearGradient>
</defs>
</svg>
